<svg width="12" height="25" viewBox="0 0 12 25" fill="none" xmlns="http://www.w3.org/2000/svg">
<path d="M6.50141 20.25C6.31141 20.25 6.12141 20.18 5.97141 20.03L3.47141 17.53C3.18141 17.24 3.18141 16.76 3.47141 16.47C3.76141 16.18 4.24141 16.18 4.53141 16.47L6.50141 18.44L8.47141 16.47C8.76141 16.18 9.24141 16.18 9.53141 16.47C9.82141 16.76 9.82141 17.24 9.53141 17.53L7.03141 20.03C6.88141 20.18 6.69141 20.25 6.50141 20.25Z" fill="#6C6A6C"/>
<path d="M6.5 20.25C6.09 20.25 5.75 19.91 5.75 19.5V5.5C5.75 5.09 6.09 4.75 6.5 4.75C6.91 4.75 7.25 5.09 7.25 5.5V19.5C7.25 19.91 6.91 20.25 6.5 20.25Z" fill="#6C6A6C"/>
</svg>
