<svg width="23" height="13" viewBox="0 0 23 13" fill="none" xmlns="http://www.w3.org/2000/svg">
<path d="M11.489 12.5952C11.3043 12.5961 11.1212 12.56 10.9506 12.4892C10.7799 12.4184 10.6251 12.3142 10.4953 12.1827L1.1203 2.80771C0.933311 2.53415 0.848932 2.20335 0.882039 1.87366C0.915147 1.54396 1.06362 1.23654 1.30126 1.00562C1.5389 0.774706 1.85045 0.635123 2.18096 0.611492C2.51148 0.587862 2.83972 0.681701 3.1078 0.876461L11.489 9.20146L19.8703 0.876461C20.1346 0.705103 20.4488 0.627439 20.7625 0.655915C21.0762 0.684392 21.3712 0.817361 21.6003 1.03351C21.8294 1.24966 21.9794 1.53647 22.026 1.84797C22.0727 2.15948 22.0135 2.47764 21.8578 2.75146L12.4828 12.1265C12.3578 12.2681 12.2052 12.3828 12.0343 12.4634C11.8634 12.544 11.6779 12.5889 11.489 12.5952Z" fill="#09090C"/>
</svg>
