<svg width="19" height="19" viewBox="0 0 19 19" fill="none" xmlns="http://www.w3.org/2000/svg">
<path d="M11.5 14.25H3.5C2.77065 14.25 2.07118 13.9603 1.55546 13.4445C1.03973 12.9288 0.75 12.2293 0.75 11.5V3.5C0.75 2.77065 1.03973 2.07118 1.55546 1.55546C2.07118 1.03973 2.77065 0.75 3.5 0.75H11.5C12.2293 0.75 12.9288 1.03973 13.4445 1.55546C13.9603 2.07118 14.25 2.77065 14.25 3.5V11.5C14.25 12.2293 13.9603 12.9288 13.4445 13.4445C12.9288 13.9603 12.2293 14.25 11.5 14.25ZM3.5 2.25C3.16848 2.25 2.85054 2.3817 2.61612 2.61612C2.3817 2.85054 2.25 3.16848 2.25 3.5V11.5C2.25 11.8315 2.3817 12.1495 2.61612 12.3839C2.85054 12.6183 3.16848 12.75 3.5 12.75H11.5C11.8315 12.75 12.1495 12.6183 12.3839 12.3839C12.6183 12.1495 12.75 11.8315 12.75 11.5V3.5C12.75 3.16848 12.6183 2.85054 12.3839 2.61612C12.1495 2.3817 11.8315 2.25 11.5 2.25H3.5Z" fill="black"/>
<path d="M15.5 18.25H7.5C6.77065 18.25 6.07118 17.9603 5.55546 17.4445C5.03973 16.9288 4.75 16.2293 4.75 15.5V13.5H6.25V15.5C6.25 15.8315 6.3817 16.1495 6.61612 16.3839C6.85054 16.6183 7.16848 16.75 7.5 16.75H15.5C15.8315 16.75 16.1495 16.6183 16.3839 16.3839C16.6183 16.1495 16.75 15.8315 16.75 15.5V7.5C16.75 7.16848 16.6183 6.85054 16.3839 6.61612C16.1495 6.3817 15.8315 6.25 15.5 6.25H13.5V4.75H15.5C16.2293 4.75 16.9288 5.03973 17.4445 5.55546C17.9603 6.07118 18.25 6.77065 18.25 7.5V15.5C18.25 16.2293 17.9603 16.9288 17.4445 17.4445C16.9288 17.9603 16.2293 18.25 15.5 18.25Z" fill="black"/>
</svg>
