<svg width="9" height="8" viewBox="0 0 9 8" fill="none" xmlns="http://www.w3.org/2000/svg">
<path fill-rule="evenodd" clip-rule="evenodd" d="M7.42701 1.07296C7.45029 1.09618 7.46876 1.12377 7.48137 1.15414C7.49397 1.18451 7.50046 1.21707 7.50046 1.24996C7.50046 1.28284 7.49397 1.3154 7.48137 1.34578C7.46876 1.37615 7.45029 1.40374 7.42701 1.42696L1.92701 6.92696C1.88007 6.9739 1.8164 7.00027 1.75001 7.00027C1.68362 7.00027 1.61995 6.9739 1.57301 6.92696C1.52607 6.88002 1.49969 6.81635 1.49969 6.74996C1.49969 6.68357 1.52607 6.6199 1.57301 6.57296L7.07301 1.07296C7.09623 1.04968 7.12382 1.03121 7.15419 1.0186C7.18457 1.006 7.21713 0.999512 7.25001 0.999512C7.28289 0.999512 7.31545 1.006 7.34583 1.0186C7.3762 1.03121 7.40379 1.04968 7.42701 1.07296V1.07296Z" fill="#6B7280"/>
<path fill-rule="evenodd" clip-rule="evenodd" d="M1.57302 1.07296C1.54974 1.09618 1.53127 1.12377 1.51866 1.15414C1.50606 1.18451 1.49957 1.21707 1.49957 1.24996C1.49957 1.28284 1.50606 1.3154 1.51866 1.34578C1.53127 1.37615 1.54974 1.40374 1.57302 1.42696L7.07302 6.92696C7.11996 6.9739 7.18363 7.00027 7.25002 7.00027C7.31641 7.00027 7.38008 6.9739 7.42702 6.92696C7.47396 6.88002 7.50034 6.81635 7.50034 6.74996C7.50034 6.68357 7.47396 6.6199 7.42702 6.57296L1.92702 1.07296C1.9038 1.04968 1.87621 1.03121 1.84584 1.0186C1.81546 1.006 1.7829 0.999512 1.75002 0.999512C1.71714 0.999512 1.68458 1.006 1.6542 1.0186C1.62383 1.03121 1.59624 1.04968 1.57302 1.07296Z" fill="#6B7280"/>
</svg>
