<svg width="10" height="17" viewBox="0 0 10 17" fill="none" xmlns="http://www.w3.org/2000/svg">
<path d="M1.74778 16.5C1.26593 16.5 0.854167 16.3284 0.5125 15.9853C0.170833 15.6421 0 15.2296 0 14.7478C0 14.2659 0.171575 13.8542 0.514725 13.5125C0.857858 13.1708 1.27036 13 1.75222 13C2.23407 13 2.64583 13.1716 2.9875 13.5147C3.32917 13.8579 3.5 14.2704 3.5 14.7522C3.5 15.2341 3.32843 15.6458 2.98528 15.9875C2.64214 16.3292 2.22964 16.5 1.74778 16.5ZM8.24778 16.5C7.76592 16.5 7.35417 16.3284 7.0125 15.9853C6.67083 15.6421 6.5 15.2296 6.5 14.7478C6.5 14.2659 6.67157 13.8542 7.01472 13.5125C7.35786 13.1708 7.77036 13 8.25222 13C8.73407 13 9.14583 13.1716 9.4875 13.5147C9.82917 13.8579 10 14.2704 10 14.7522C10 15.2341 9.82842 15.6458 9.48527 15.9875C9.14214 16.3292 8.72964 16.5 8.24778 16.5ZM1.74778 10.25C1.26593 10.25 0.854167 10.0784 0.5125 9.73527C0.170833 9.39214 0 8.97964 0 8.49777C0 8.01592 0.171575 7.60417 0.514725 7.2625C0.857858 6.92083 1.27036 6.75 1.75222 6.75C2.23407 6.75 2.64583 6.92157 2.9875 7.26472C3.32917 7.60786 3.5 8.02036 3.5 8.50222C3.5 8.98407 3.32843 9.39583 2.98528 9.7375C2.64214 10.0792 2.22964 10.25 1.74778 10.25ZM8.24778 10.25C7.76592 10.25 7.35417 10.0784 7.0125 9.73527C6.67083 9.39214 6.5 8.97964 6.5 8.49777C6.5 8.01592 6.67157 7.60417 7.01472 7.2625C7.35786 6.92083 7.77036 6.75 8.25222 6.75C8.73407 6.75 9.14583 6.92157 9.4875 7.26472C9.82917 7.60786 10 8.02036 10 8.50222C10 8.98407 9.82842 9.39583 9.48527 9.7375C9.14214 10.0792 8.72964 10.25 8.24778 10.25ZM1.74778 4C1.26593 4 0.854167 3.82843 0.5125 3.48528C0.170833 3.14214 0 2.72964 0 2.24778C0 1.76593 0.171575 1.35417 0.514725 1.0125C0.857858 0.670833 1.27036 0.5 1.75222 0.5C2.23407 0.5 2.64583 0.671575 2.9875 1.01472C3.32917 1.35786 3.5 1.77036 3.5 2.25222C3.5 2.73407 3.32843 3.14583 2.98528 3.4875C2.64214 3.82917 2.22964 4 1.74778 4ZM8.24778 4C7.76592 4 7.35417 3.82843 7.0125 3.48528C6.67083 3.14214 6.5 2.72964 6.5 2.24778C6.5 1.76593 6.67157 1.35417 7.01472 1.0125C7.35786 0.670833 7.77036 0.5 8.25222 0.5C8.73407 0.5 9.14583 0.671575 9.4875 1.01472C9.82917 1.35786 10 1.77036 10 2.25222C10 2.73407 9.82842 3.14583 9.48527 3.4875C9.14214 3.82917 8.72964 4 8.24778 4Z" fill="#B3B3B3"/>
</svg>
