<svg width="18" height="18" viewBox="0 0 18 18" fill="none" xmlns="http://www.w3.org/2000/svg">
<path d="M16.209 6.8125L15.334 5.9375L16.2715 5L13.0007 1.72917L12.0632 2.66667L11.1673 1.77083L11.7923 1.125C12.1118 0.805556 12.5076 0.649306 12.9798 0.65625C13.452 0.663194 13.8479 0.826389 14.1673 1.14583L16.8548 3.83333C17.1743 4.15278 17.334 4.54514 17.334 5.01042C17.334 5.47569 17.1743 5.86806 16.8548 6.1875L16.209 6.8125ZM6.20898 16.8333C5.88954 17.1528 5.49718 17.3125 5.0319 17.3125C4.56662 17.3125 4.17426 17.1528 3.85482 16.8333L0.875651 13.8542C0.63954 13.6128 0.521484 13.3164 0.521484 12.9648C0.521484 12.6133 0.63954 12.3194 0.875651 12.0833L1.79232 11.1667L2.68815 12.0417L1.75065 12.9792L5.02148 16.25L5.95898 15.3125L6.83398 16.2083L6.20898 16.8333ZM14.4798 10.4167L16.2507 8.64583L9.35482 1.75L7.58398 3.52083L14.4798 10.4167ZM8.64648 16.25L10.4382 14.4583L3.54232 7.5625L1.75065 9.35417L8.64648 16.25ZM8.83398 11.0833L11.1048 8.8125L9.18815 6.89583L6.91732 9.16667L8.83398 11.0833ZM9.52148 17.125C9.28629 17.3611 8.99485 17.4792 8.64717 17.4792C8.29949 17.4792 8.0076 17.3611 7.77148 17.125L0.875651 10.2292C0.63954 9.99397 0.521484 9.70253 0.521484 9.35485C0.521484 9.00717 0.63954 8.71528 0.875651 8.47917L2.64648 6.6875C2.88785 6.45139 3.1843 6.33333 3.53584 6.33333C3.88738 6.33333 4.18121 6.45139 4.41732 6.6875L6.02148 8.29167L8.31315 6L6.70898 4.39583C6.47287 4.16064 6.35482 3.8692 6.35482 3.52152C6.35482 3.17384 6.47287 2.88194 6.70898 2.64583L8.47982 0.854167C8.72118 0.618056 9.01763 0.5 9.36917 0.5C9.72071 0.5 10.0145 0.618056 10.2507 0.854167L17.1465 7.75C17.3826 7.99136 17.5007 8.28781 17.5007 8.63935C17.5007 8.9909 17.3826 9.28472 17.1465 9.52083L15.3548 11.2917C15.1196 11.5278 14.8282 11.6458 14.4805 11.6458C14.1328 11.6458 13.8409 11.5278 13.6048 11.2917L12.0007 9.6875L9.70898 11.9792L11.3132 13.5833C11.5493 13.8247 11.6673 14.1211 11.6673 14.4727C11.6673 14.8242 11.5493 15.1181 11.3132 15.3542L9.52148 17.125Z" fill="black"/>
</svg>
