<svg width="31" height="39" viewBox="0 0 31 39" fill="none" xmlns="http://www.w3.org/2000/svg">
<path d="M15.5 17.3406C17.7281 17.3406 19.6091 16.5253 21.143 14.8945C22.6768 13.2638 23.4437 11.3021 23.4437 9.00937V2.90625H7.55625V9.00937C7.55625 11.3021 8.32318 13.2638 9.85703 14.8945C11.3909 16.5253 13.2719 17.3406 15.5 17.3406ZM0 38.75V35.8438H4.65V29.6922C4.65 27.4318 5.23932 25.357 6.41797 23.468C7.59661 21.5789 9.23542 20.2146 11.3344 19.375C9.23542 18.5354 7.59661 17.163 6.41797 15.2578C5.23932 13.3526 4.65 11.2698 4.65 9.00937V2.90625H0V0H31V2.90625H26.35V9.00937C26.35 11.2698 25.7607 13.3526 24.582 15.2578C23.4034 17.163 21.7646 18.5354 19.6656 19.375C21.7646 20.2146 23.4034 21.5789 24.582 23.468C25.7607 25.357 26.35 27.4318 26.35 29.6922V35.8438H31V38.75H0Z" fill="black"/>
</svg>
