<svg width="40" height="40" viewBox="0 0 40 40" fill="none" xmlns="http://www.w3.org/2000/svg">
<path d="M12.6689 21.6772L16.2627 24.0731L20.0002 22.2043L23.6897 24.121L27.2835 21.7252L25.0314 17.1252H14.921L12.6689 21.6772ZM5.48141 36.2918H34.5189L28.5772 24.3127L23.9293 27.4272L20.0002 25.4627L16.071 27.3793L11.3752 24.2647L5.48141 36.2918ZM0.833496 39.1668L12.3335 15.8314C12.5891 15.3522 12.9479 14.9689 13.4101 14.6814C13.8722 14.3939 14.3759 14.2502 14.921 14.2502H18.5627V0.833496H30.7335L29.0564 4.18766L30.7335 7.54183H21.4377V14.2502H24.9356C25.4764 14.2502 25.9702 14.3939 26.417 14.6814C26.8638 14.9689 27.2165 15.3522 27.4752 15.8314L39.1668 39.1668H0.833496Z" fill="#09090C"/>
</svg>
