<svg width="16" height="17" viewBox="0 0 16 17" fill="none" xmlns="http://www.w3.org/2000/svg">
<path d="M1.75 15.5827H14.25V13.0827H1.75V15.5827ZM4.5 11.8327H11.5L11 8.29101H5L4.5 11.8327ZM0.5 16.8327V13.0827C0.5 12.7389 0.622396 12.4447 0.867188 12.1999C1.11198 11.9551 1.40625 11.8327 1.75 11.8327H3.25L3.75 8.29101H1.54167V7.04102H14.4583V8.29101H12.25L12.75 11.8327H14.25C14.5938 11.8327 14.888 11.9551 15.1328 12.1999C15.3776 12.4447 15.5 12.7389 15.5 13.0827V16.8327H0.5ZM3.6875 7.04102L2.16667 0.166016C2.59722 0.582682 3.06944 0.905599 3.58333 1.13477C4.09722 1.36393 4.62094 1.47852 5.15448 1.47852C5.6626 1.47852 6.15625 1.3674 6.63542 1.14518C7.11458 0.92296 7.56944 0.596571 8 0.166016C8.43056 0.596571 8.88542 0.92296 9.36458 1.14518C9.84375 1.3674 10.3403 1.47852 10.8542 1.47852C11.3681 1.47852 11.8854 1.36393 12.4062 1.13477C12.9271 0.905599 13.4028 0.582682 13.8333 0.166016L12.3125 7.04102H11.0208L11.9792 2.60352C11.7569 2.64518 11.5451 2.6799 11.3438 2.70768C11.1424 2.73546 10.9444 2.74935 10.75 2.74935C10.25 2.74935 9.77083 2.67643 9.3125 2.5306C8.85417 2.38477 8.41667 2.17296 8 1.89518C7.58333 2.17296 7.14583 2.38477 6.6875 2.5306C6.22917 2.67643 5.75 2.74935 5.25 2.74935C5.05556 2.74935 4.85764 2.73546 4.65625 2.70768C4.45486 2.6799 4.24306 2.64518 4.02083 2.60352L4.97917 7.04102H3.6875Z" fill="black"/>
</svg>
