<svg width="35" height="33" viewBox="0 0 35 33" fill="none" xmlns="http://www.w3.org/2000/svg">
<path d="M13.7258 3.94451H2.22583C1.43193 3.94451 0.788335 4.5881 0.788335 5.38201C0.788335 6.17592 1.43193 6.81951 2.22583 6.81951H13.7258C14.5197 6.81951 15.1633 6.17592 15.1633 5.38201C15.1633 4.5881 14.5197 3.94451 13.7258 3.94451Z" fill="black"/>
<path fill-rule="evenodd" clip-rule="evenodd" d="M5.88667 18.1087H2.22583C1.43193 18.1087 0.788335 17.4651 0.788335 16.6712C0.788335 15.8773 1.43193 15.2337 2.22583 15.2337H5.88667C6.58592 13.2757 8.59269 12.1049 10.6413 12.4597C12.6899 12.8145 14.186 14.5921 14.186 16.6712C14.186 18.7503 12.6899 20.5278 10.6413 20.8826C8.59269 21.2375 6.58592 20.0667 5.88667 18.1087ZM9.8925 18.0703C10.6652 18.0703 11.2917 17.4439 11.2917 16.6712C11.2917 15.8984 10.6652 15.272 9.8925 15.272C9.52142 15.272 9.16554 15.4194 8.90314 15.6818C8.64075 15.9442 8.49334 16.3001 8.49334 16.6712C8.49334 17.4439 9.11977 18.0703 9.8925 18.0703Z" fill="black"/>
<path fill-rule="evenodd" clip-rule="evenodd" d="M24.6892 6.74284C24.0345 8.28937 22.5347 9.30917 20.8558 9.34951V9.21534C18.6332 9.22385 16.775 7.52749 16.5815 5.3133C16.388 3.09912 17.9238 1.10616 20.1142 0.72902C22.3046 0.351882 24.4185 1.71645 24.9767 3.86784C25.0594 3.857 25.1431 3.857 25.2258 3.86784H32.7967C33.5906 3.86784 34.2342 4.51143 34.2342 5.30534C34.2342 6.09925 33.5906 6.74284 32.7967 6.74284H25.13C24.9836 6.76108 24.8355 6.76108 24.6892 6.74284ZM22.262 4.93536C22.2281 4.18471 21.6072 3.59495 20.8558 3.59951V3.67618C20.4709 3.68054 20.1047 3.84334 19.8436 4.12623C19.5825 4.40911 19.4494 4.7871 19.4758 5.17118C19.5685 5.91686 20.2336 6.4562 20.9823 6.39283C21.731 6.32946 22.296 5.686 22.262 4.93536Z" fill="black"/>
<path d="M13.7258 27.1362H2.22583C1.41075 27.1362 0.75 27.7969 0.75 28.612C0.75 29.4271 1.41075 30.0878 2.22583 30.0878H13.7258C14.5197 30.0878 15.1633 29.4443 15.1633 28.6503C15.1633 27.8564 14.5197 27.2128 13.7258 27.2128V27.1362Z" fill="black"/>
<path fill-rule="evenodd" clip-rule="evenodd" d="M25.475 27.1362H32.8925V27.2128C33.6864 27.2128 34.33 27.8564 34.33 28.6503C34.33 29.4443 33.6864 30.0878 32.8925 30.0878H25.2258C24.349 31.9516 22.2631 32.9197 20.2736 32.3863C18.2842 31.8528 16.9625 29.971 17.1357 27.9186C17.309 25.8661 18.9274 24.2325 20.9782 24.0401C23.0289 23.8477 24.923 25.1518 25.475 27.1362ZM20.0863 28.8159C20.3089 29.338 20.8249 29.674 21.3925 29.6662C22.1578 29.6557 22.7726 29.0323 22.7725 28.267C22.7725 27.6994 22.4295 27.188 21.9043 26.9726C21.3791 26.7572 20.7758 26.8805 20.3772 27.2846C19.9786 27.6888 19.8636 28.2937 20.0863 28.8159Z" fill="black"/>
<path d="M32.8925 15.2337H17.5592C16.7653 15.2337 16.1217 15.8773 16.1217 16.6712C16.1217 17.4651 16.7653 18.1087 17.5592 18.1087H32.8925C33.6864 18.1087 34.33 17.4651 34.33 16.6712C34.33 15.8773 33.6864 15.2337 32.8925 15.2337Z" fill="black"/>
</svg>
