<svg width="35" height="37" viewBox="0 0 35 37" fill="none" xmlns="http://www.w3.org/2000/svg">
<path d="M28.7542 12.3623L27.097 8.25083L23.0886 6.35956L27.097 4.5094L28.7542 0.603516L30.4115 4.5094L34.4199 6.35956L30.4115 8.25083L28.7542 12.3623ZM28.7542 36.8255L27.097 32.8785L23.0886 31.0283L27.097 29.1782L28.7542 25.0256L30.4115 29.1782L34.4199 31.0283L30.4115 32.8785L28.7542 36.8255ZM11.8345 30.4938L8.28862 22.3942L0.541748 18.6939L8.28862 14.9936L11.8345 6.93516L15.4188 14.9936L23.1272 18.6939L15.4188 22.3942L11.8345 30.4938ZM11.8345 24.4089L13.6845 20.4619L17.4615 18.6939L13.6845 16.926L11.8345 12.979L10.023 16.926L6.20737 18.6939L10.023 20.4619L11.8345 24.4089Z" fill="#09090C"/>
</svg>
