<svg width="24" height="24" viewBox="0 0 24 24" fill="none" xmlns="http://www.w3.org/2000/svg">
<path d="M19.7146 3.77568C17.5459 1.60186 14.6578 0.40625 11.5886 0.40625C5.25342 0.40625 0.0983398 5.56133 0.0983398 11.8965C0.0983398 13.9202 0.62627 15.8974 1.63037 17.6416L0 23.5938L6.09189 21.9944C7.76885 22.9105 9.65801 23.3919 11.5834 23.3919H11.5886C17.9186 23.3919 23.1875 18.2368 23.1875 11.9017C23.1875 8.83242 21.8832 5.94951 19.7146 3.77568ZM11.5886 21.4562C9.87021 21.4562 8.18809 20.9955 6.72334 20.126L6.37656 19.9189L2.76387 20.8661L3.72656 17.3414L3.49883 16.9791C2.54131 15.4574 2.03926 13.7028 2.03926 11.8965C2.03926 6.63272 6.3248 2.34717 11.5938 2.34717C14.1454 2.34717 16.5418 3.34092 18.343 5.14727C20.1441 6.95361 21.2518 9.35 21.2466 11.9017C21.2466 17.1706 16.8523 21.4562 11.5886 21.4562ZM16.8265 14.3032C16.5418 14.1583 15.1288 13.4647 14.8648 13.3716C14.6009 13.2732 14.4094 13.2267 14.2179 13.5165C14.0264 13.8063 13.4777 14.4481 13.3069 14.6448C13.1413 14.8363 12.9705 14.8622 12.6858 14.7173C10.9985 13.8736 9.89092 13.2111 8.77813 11.3013C8.48311 10.794 9.07314 10.8303 9.62178 9.73301C9.71494 9.5415 9.66836 9.37588 9.5959 9.23096C9.52344 9.08603 8.94893 7.67305 8.71084 7.09854C8.47793 6.53955 8.23984 6.61719 8.06387 6.60684C7.89824 6.59648 7.70674 6.59648 7.51523 6.59648C7.32373 6.59648 7.01318 6.66895 6.74922 6.95361C6.48525 7.24346 5.74512 7.93701 5.74512 9.35C5.74512 10.763 6.7751 12.1294 6.91484 12.3209C7.05977 12.5124 8.93857 15.4108 11.8215 16.6582C13.6434 17.4449 14.3576 17.5122 15.2686 17.3776C15.8224 17.2948 16.9662 16.6841 17.2043 16.0112C17.4424 15.3384 17.4424 14.7639 17.3699 14.6448C17.3026 14.5154 17.1111 14.443 16.8265 14.3032Z" fill="black"/>
</svg>
