<svg width="14" height="16" viewBox="0 0 14 16" fill="none" xmlns="http://www.w3.org/2000/svg">
<g clip-path="url(#clip0_868_5140)">
<path d="M11.1592 3.34473C9.93164 2.11426 8.29688 1.4375 6.55957 1.4375C2.97363 1.4375 0.0556641 4.35547 0.0556641 7.94141C0.0556641 9.08691 0.354492 10.2061 0.922852 11.1934L0 14.5625L3.44824 13.6572C4.39746 14.1758 5.4668 14.4482 6.55664 14.4482H6.55957C10.1426 14.4482 13.125 11.5303 13.125 7.94434C13.125 6.20703 12.3867 4.5752 11.1592 3.34473ZM6.55957 13.3525C5.58691 13.3525 4.63477 13.0918 3.80566 12.5996L3.60938 12.4824L1.56445 13.0186L2.10938 11.0234L1.98047 10.8184C1.43848 9.95703 1.1543 8.96387 1.1543 7.94141C1.1543 4.96191 3.58008 2.53613 6.5625 2.53613C8.00684 2.53613 9.36328 3.09863 10.3828 4.12109C11.4023 5.14355 12.0293 6.5 12.0264 7.94434C12.0264 10.9268 9.53906 13.3525 6.55957 13.3525ZM9.52441 9.30371C9.36328 9.22168 8.56348 8.8291 8.41406 8.77637C8.26465 8.7207 8.15625 8.69434 8.04785 8.8584C7.93945 9.02246 7.62891 9.38574 7.53223 9.49707C7.43848 9.60547 7.3418 9.62012 7.18066 9.53809C6.22559 9.06055 5.59863 8.68555 4.96875 7.60449C4.80176 7.31738 5.13574 7.33789 5.44629 6.7168C5.49902 6.6084 5.47266 6.51465 5.43164 6.43262C5.39062 6.35059 5.06543 5.55078 4.93066 5.22559C4.79883 4.90918 4.66406 4.95312 4.56445 4.94727C4.4707 4.94141 4.3623 4.94141 4.25391 4.94141C4.14551 4.94141 3.96973 4.98242 3.82031 5.14355C3.6709 5.30762 3.25195 5.7002 3.25195 6.5C3.25195 7.2998 3.83496 8.07324 3.91406 8.18164C3.99609 8.29004 5.05957 9.93066 6.69141 10.6367C7.72266 11.082 8.12695 11.1201 8.64258 11.0439C8.95605 10.9971 9.60352 10.6514 9.73828 10.2705C9.87305 9.88965 9.87305 9.56445 9.83203 9.49707C9.79395 9.42383 9.68555 9.38281 9.52441 9.30371Z" fill="black"/>
</g>
<defs>
<clipPath id="clip0_868_5140">
<rect width="13.125" height="15" fill="white" transform="translate(0 0.5)"/>
</clipPath>
</defs>
</svg>
