<svg width="12" height="13" viewBox="0 0 12 13" fill="none" xmlns="http://www.w3.org/2000/svg">
<path d="M7.06012 6.49996L11.4801 2.07996C11.5538 2.0113 11.6129 1.9285 11.6539 1.8365C11.6949 1.7445 11.7169 1.64518 11.7187 1.54448C11.7205 1.44378 11.702 1.34375 11.6642 1.25036C11.6265 1.15697 11.5704 1.07214 11.4992 1.00092C11.4279 0.929701 11.3431 0.873557 11.2497 0.835836C11.1563 0.798115 11.0563 0.77959 10.9556 0.781367C10.8549 0.783144 10.7556 0.805186 10.6636 0.846177C10.5716 0.887169 10.4888 0.946272 10.4201 1.01996L6.00012 5.43996L1.58012 1.01996C1.43795 0.887478 1.2499 0.815355 1.0556 0.818783C0.861298 0.822211 0.675912 0.900924 0.538499 1.03834C0.401086 1.17575 0.322374 1.36113 0.318946 1.55544C0.315518 1.74974 0.387641 1.93778 0.520121 2.07996L4.94012 6.49996L0.520121 10.92C0.379671 11.0606 0.300781 11.2512 0.300781 11.45C0.300781 11.6487 0.379671 11.8393 0.520121 11.98C0.660746 12.1204 0.851371 12.1993 1.05012 12.1993C1.24887 12.1993 1.4395 12.1204 1.58012 11.98L6.00012 7.55996L10.4201 11.98C10.5607 12.1204 10.7514 12.1993 10.9501 12.1993C11.1489 12.1993 11.3395 12.1204 11.4801 11.98C11.6206 11.8393 11.6995 11.6487 11.6995 11.45C11.6995 11.2512 11.6206 11.0606 11.4801 10.92L7.06012 6.49996Z" fill="#B3B3B3"/>
</svg>
