<svg width="14" height="14" viewBox="0 0 14 14" fill="none" xmlns="http://www.w3.org/2000/svg">
<circle cx="6.99957" cy="7.00005" r="6.22222" fill="#FDFDFD"/>
<path d="M7.61873 6.99998L10.1971 4.42164C10.24 4.38159 10.2745 4.33329 10.2984 4.27962C10.3223 4.22596 10.3352 4.16802 10.3362 4.10928C10.3373 4.05054 10.3265 3.99219 10.3045 3.93771C10.2825 3.88323 10.2497 3.83375 10.2082 3.7922C10.1666 3.75066 10.1171 3.71791 10.0627 3.6959C10.0082 3.6739 9.94983 3.66309 9.89109 3.66413C9.83235 3.66517 9.77442 3.67802 9.72075 3.70194C9.66708 3.72585 9.61878 3.76033 9.57873 3.80331L7.0004 6.38164L4.42206 3.80331C4.33913 3.72603 4.22943 3.68396 4.11609 3.68596C4.00275 3.68796 3.89461 3.73387 3.81445 3.81403C3.73429 3.89419 3.68838 4.00233 3.68638 4.11567C3.68438 4.22901 3.72645 4.33871 3.80373 4.42164L6.38206 6.99998L3.80373 9.57831C3.7218 9.66034 3.67578 9.77154 3.67578 9.88748C3.67578 10.0034 3.7218 10.1146 3.80373 10.1966C3.88576 10.2786 3.99696 10.3246 4.1129 10.3246C4.22883 10.3246 4.34003 10.2786 4.42206 10.1966L7.0004 7.61831L9.57873 10.1966C9.66076 10.2786 9.77196 10.3246 9.8879 10.3246C10.0038 10.3246 10.115 10.2786 10.1971 10.1966C10.279 10.1146 10.325 10.0034 10.325 9.88748C10.325 9.77154 10.279 9.66034 10.1971 9.57831L7.61873 6.99998Z" fill="#09090C"/>
</svg>
